<?xml version="1.0" encoding="iso-8859-1"?>
<!-- Uploaded to: SVG Repo, www.svgrepo.com, Generator: SVG Repo Mixer Tools -->
<svg fill="#0d018b" height="800px" width="800px" version="1.1" id="Layer_1" xmlns="http://www.w3.org/2000/svg" xmlns:xlink="http://www.w3.org/1999/xlink"
	 viewBox="0 0 512 512" xml:space="preserve">
<g>
	<g>
		<g>
			<path d="M317.642,103.567c19.073,7.721,36.356,18.846,51.371,33.064c1.563,1.48,3.561,2.214,5.558,2.214
				c2.142,0,4.28-0.847,5.87-2.526c3.071-3.242,2.932-8.359-0.31-11.429c-16.486-15.613-35.47-27.83-56.422-36.312
				c-4.146-1.675-8.853,0.323-10.528,4.46C311.505,97.179,313.502,101.891,317.642,103.567z"/>
			<path d="M140.443,256c0-4.465-3.618-8.084-8.084-8.084c-4.466,0-8.084,3.62-8.084,8.084c0,72.634,59.091,131.725,131.725,131.725
				c4.466,0,8.084-3.62,8.084-8.084s-3.619-8.084-8.084-8.084C192.282,371.557,140.443,319.719,140.443,256z"/>
			<path d="M473.429,355.705h-66.973c19.008-28.587,30.092-62.877,30.092-99.705c0-36.444-10.808-71.565-31.257-101.567
				c-2.515-3.688-7.543-4.641-11.233-2.127s-4.643,7.544-2.128,11.233c18.612,27.306,28.449,59.279,28.449,92.461
				c0,42.415-16.151,81.134-42.623,110.324l-8.249-8.25c-3.158-3.157-8.276-3.157-11.433,0c-3.157,3.157-3.157,8.276,0,11.432
				l8.25,8.25c-29.189,26.471-67.908,42.623-110.324,42.623c-90.639,0-164.379-73.74-164.379-164.379
				c0-42.415,16.151-81.134,42.623-110.324l8.249,8.25c3.158,3.157,8.276,3.157,11.433,0c3.157-3.157,3.157-8.276,0-11.432
				l-8.25-8.25C174.866,107.773,213.585,91.621,256,91.621c10.367,0,20.74,0.97,30.83,2.885c4.388,0.831,8.619-2.049,9.45-6.436
				c0.832-4.386-2.048-8.617-6.435-9.45c-11.083-2.102-22.469-3.168-33.845-3.168c-36.828,0-71.118,11.085-99.705,30.092V72.758
				c0-4.465-3.618-8.084-8.084-8.084c-4.466,0-8.084,3.62-8.084,8.084v44.886c-1.998,1.677-3.966,3.4-5.89,5.161L100.033,88.6
				c-3.158-3.157-8.276-3.157-11.433,0s-3.157,8.276,0,11.432l34.205,34.205c-1.761,1.924-3.484,3.89-5.161,5.89H38.571
				c-12.353,0-22.403-10.05-22.403-22.403c0-5.984,2.33-11.61,6.562-15.842l79.151-79.151c4.232-4.232,9.857-6.562,15.842-6.562
				c12.353,0,22.403,10.05,22.403,22.403c0,4.465,3.618,8.084,8.084,8.084c4.466,0,8.084-3.62,8.084-8.084
				C156.295,17.303,138.991,0,117.723,0c-10.303,0-19.989,4.012-27.275,11.297L11.297,90.448C4.013,97.733,0,107.42,0,117.723
				c0,21.268,17.303,38.571,38.571,38.571h66.973C86.537,184.882,75.453,219.172,75.453,256
				c0,99.554,80.994,180.547,180.547,180.547c36.828,0,71.118-11.085,99.705-30.092v32.786c0,4.465,3.618,8.084,8.084,8.084
				c4.466,0,8.084-3.62,8.084-8.084v-44.886c1.998-1.677,3.966-3.4,5.89-5.161l34.204,34.205c3.158,3.157,8.276,3.157,11.433,0
				c3.157-3.157,3.157-8.276,0-11.432l-34.205-34.205c1.761-1.924,3.484-3.89,5.161-5.89h79.071
				c12.353,0,22.403,10.05,22.403,22.403c0,5.984-2.33,11.61-6.562,15.842l-79.151,79.151c-4.233,4.232-9.858,6.562-15.842,6.562
				c-12.353,0-22.403-10.05-22.403-22.403c0-4.465-3.618-8.084-8.084-8.084c-4.466,0-8.084,3.62-8.084,8.084
				C355.705,494.697,373.009,512,394.277,512c10.302,0,19.988-4.012,27.275-11.297l79.151-79.151
				C507.987,414.267,512,404.58,512,394.277C512,373.009,494.697,355.705,473.429,355.705z"/>
		</g>
	</g>
</g>
</svg>
