<?xml version="1.0" encoding="utf-8"?>

<!DOCTYPE svg PUBLIC "-//W3C//DTD SVG 1.1//EN" "http://www.w3.org/Graphics/SVG/1.1/DTD/svg11.dtd">
<!-- Uploaded to: SVG Repo, www.svgrepo.com, Generator: SVG Repo Mixer Tools -->
<svg version="1.1" id="_x32_" xmlns="http://www.w3.org/2000/svg" xmlns:xlink="http://www.w3.org/1999/xlink"
	 width="800px" height="800px" viewBox="0 0 512 512"  xml:space="preserve">
<style type="text/css">
<![CDATA[
	.st0{fill:#0d018b;}
]]>
</style>
<g>
	<rect x="186.063" y="342.594" class="st0" width="139.875" height="32.313"/>
	<path class="st0" d="M256.016,0C114.625,0,0,114.625,0,256s114.625,256,256.016,256C397.375,512,512,397.375,512,256
		S397.375,0,256.016,0z M256.016,450.031c-107,0-194.047-87.063-194.047-194.031c0-37.766,11.031-72.953,29.781-102.781h328.5
		C439,183.047,450,218.234,450,256C450,362.969,362.969,450.031,256.016,450.031z"/>
	<path class="st0" d="M290.719,240.813c5.344,11.313,13.188,21.031,23,28.031c9.781,7,21.656,11.203,34.313,11.188
		c12.688,0.016,24.563-4.188,34.344-11.188c9.813-7,17.672-16.719,23-28.031l-23.656-11.141c-3.563,7.609-8.688,13.734-14.5,17.875
		c-5.844,4.141-12.25,6.328-19.188,6.344c-6.906-0.016-13.313-2.203-19.156-6.344c-5.813-4.141-10.922-10.297-14.5-17.891
		L290.719,240.813z"/>
	<path class="st0" d="M106.625,240.813c5.344,11.313,13.172,21.031,22.984,28.031c9.781,7,21.672,11.203,34.328,11.188
		c12.656,0.016,24.547-4.188,34.328-11.188c9.828-7,17.672-16.719,23.016-28.031l-23.656-11.141
		c-3.578,7.578-8.703,13.734-14.5,17.875c-5.859,4.141-12.281,6.328-19.188,6.344c-6.906-0.016-13.313-2.203-19.156-6.344
		c-5.813-4.141-10.938-10.297-14.531-17.891L106.625,240.813z"/>
</g>
</svg>
