<?xml version="1.0" encoding="utf-8"?><!-- Uploaded to: SVG Repo, www.svgrepo.com, Generator: SVG Repo Mixer Tools -->
<svg version="1.1" id="designs" xmlns="http://www.w3.org/2000/svg" xmlns:xlink="http://www.w3.org/1999/xlink"
	 width="800px" height="800px" viewBox="0 0 32 32" xml:space="preserve">
<style type="text/css">
	.sketchy_een{fill:#0d018b;}
</style>
<path class="sketchy_een" d="M29.777,17.643c-0.046-0.162-0.128-0.304-0.246-0.422c-0.007-0.007-0.017-0.009-0.025-0.016
	c-0.096-0.348-0.404-0.592-0.778-0.609c-0.194-0.008-0.388-0.006-0.582-0.006c-0.128,0-0.258,0-0.386-0.004
	c-0.198-0.002-0.394-0.002-0.589-0.002c-0.118,0-0.238,0-0.354-0.002c-0.757-0.006-1.517-0.026-2.274-0.038
	c-0.827-0.012-1.653-0.022-2.478-0.06c-0.853-0.038-1.706-0.062-2.56-0.086c-0.442-0.012-0.887-0.008-1.331-0.01
	c-0.462,0-0.847,0.386-0.847,0.849c0,0.275,0.148,0.516,0.36,0.672c-0.106,0.156-0.18,0.352-0.16,0.525
	c0.03,0.268,0.03,0.534,0.026,0.804c-0.005,0.245-0.012,0.491-0.036,0.735c-0.055,0.326-0.131,0.648-0.248,0.958
	c-0.076,0.17-0.16,0.334-0.265,0.489c-0.018,0.02-0.037,0.039-0.056,0.058c-0.023,0.014-0.046,0.027-0.069,0.04
	c-0.146,0.052-0.297,0.094-0.449,0.123c-0.336,0.022-0.684-0.003-1.018-0.038c-0.289-0.046-0.575-0.112-0.85-0.213
	c-0.386-0.179-0.748-0.41-1.09-0.663c-0.215-0.185-0.427-0.371-0.613-0.583c-0.127-0.145-0.249-0.296-0.369-0.448
	c-0.212-0.285-0.416-0.589-0.59-0.901c-0.094-0.172-0.178-0.348-0.268-0.521c-0.084-0.16-0.198-0.31-0.306-0.454
	c-0.442-0.593-0.965-1.135-1.587-1.544c-0.302-0.198-0.639-0.336-0.973-0.474c-0.378-0.16-0.769-0.254-1.175-0.316
	C7.21,15.43,6.83,15.4,6.441,15.39c-0.152-0.002-0.304,0-0.454,0c-0.196,0.004-0.39,0.006-0.583-0.004
	c-0.534-0.026-1.067-0.068-1.603-0.09c-0.573-0.024-1.145-0.038-1.719-0.05c-0.006,0-0.011,0-0.017,0
	c-0.446,0-0.815,0.391-0.815,0.832c0,0.024,0.012,0.045,0.014,0.069c-0.032,0.059-0.066,0.117-0.079,0.186
	c-0.1,0.488-0.164,0.977-0.178,1.475c-0.01,0.344-0.03,0.697,0.072,1.033c0.012,0.039,0.038,0.067,0.054,0.104
	c0.085,0.357,0.396,0.629,0.777,0.634c0.216,0.004,0.434,0.002,0.651,0c0.547-0.002,1.096-0.005,1.638,0.053
	c0.138,0.025,0.273,0.058,0.408,0.091c0.198,0.05,0.4,0.072,0.599,0.108c0.376,0.07,0.748,0.141,1.106,0.273
	c0.127,0.058,0.249,0.121,0.366,0.199c0.088,0.076,0.17,0.156,0.246,0.243c0.253,0.357,0.44,0.756,0.614,1.157
	c0.123,0.32,0.211,0.652,0.338,0.971c0.164,0.42,0.314,0.839,0.514,1.245c0.188,0.377,0.354,0.765,0.52,1.155
	c0.15,0.348,0.346,0.682,0.534,1.011c0.22,0.386,0.496,0.763,0.803,1.087c0.168,0.176,0.386,0.322,0.577,0.468
	c0.168,0.128,0.358,0.236,0.544,0.337c0.43,0.234,0.895,0.406,1.357,0.566c0.424,0.146,0.855,0.262,1.297,0.343
	c0.47,0.086,0.955,0.124,1.431,0.158c0.38,0.028,0.761,0.058,1.143,0.082c0.823,0.054,1.657,0.042,2.482,0.03
	c0.869-0.012,1.737-0.038,2.608-0.03c0.823,0.01,1.645-0.08,2.442-0.282c0.38-0.096,0.739-0.264,1.111-0.38
	c0.224-0.07,0.434-0.138,0.647-0.232c0.148-0.066,0.286-0.152,0.424-0.235c0.116-0.07,0.228-0.142,0.338-0.222
	c0.2-0.146,0.35-0.298,0.514-0.481c0.142-0.16,0.29-0.32,0.432-0.481c0.182-0.204,0.334-0.442,0.476-0.673
	c0.222-0.362,0.416-0.738,0.581-1.127c0.096-0.224,0.19-0.449,0.282-0.675c0.074-0.182,0.156-0.364,0.21-0.551
	c0.11-0.39,0.208-0.786,0.312-1.175c0.12-0.454,0.158-0.911,0.188-1.376c0.022-0.344,0.074-0.686,0.118-1.027
	c0.034-0.274,0.036-0.547,0.06-0.821c0.02-0.242,0.044-0.487,0.048-0.729c0.006-0.252-0.024-0.51-0.056-0.758
	C29.799,17.811,29.789,17.727,29.777,17.643z M9.741,22.788c-0.002-0.006-0.005-0.012-0.007-0.018
	c0.019,0.045,0.038,0.09,0.056,0.134C9.774,22.865,9.758,22.826,9.741,22.788z M27.837,19.612c-0.01,0.33-0.026,0.653-0.052,0.981
	c-0.03,0.371-0.03,0.745-0.062,1.115c-0.087,0.491-0.231,0.971-0.33,1.459c-0.086,0.413-0.25,0.817-0.414,1.21
	c-0.198,0.434-0.429,0.856-0.704,1.246c-0.13,0.153-0.265,0.303-0.397,0.454c-0.092,0.103-0.179,0.207-0.281,0.299
	c-0.205,0.146-0.428,0.28-0.655,0.387c-0.184,0.069-0.372,0.127-0.559,0.188c-0.196,0.064-0.384,0.146-0.577,0.21
	c-0.354,0.118-0.726,0.192-1.095,0.25c-0.637,0.073-1.285,0.07-1.922,0.08c-0.741,0.01-1.479,0.05-2.22,0.058
	c-1.315,0.011-2.633-0.066-3.938-0.226c-0.627-0.109-1.23-0.3-1.822-0.533c-0.36-0.165-0.699-0.349-1.022-0.578
	c-0.174-0.148-0.34-0.301-0.487-0.475c-0.32-0.437-0.591-0.911-0.841-1.389c-0.126-0.24-0.218-0.5-0.328-0.746
	c-0.131-0.298-0.282-0.589-0.42-0.885c-0.099-0.246-0.2-0.492-0.304-0.737C9.353,21.84,9.31,21.702,9.265,21.56
	c-0.064-0.204-0.15-0.404-0.238-0.6c-0.146-0.326-0.302-0.657-0.482-0.967c-0.188-0.326-0.43-0.635-0.713-0.881
	c-0.386-0.332-0.867-0.562-1.363-0.686c-0.326-0.082-0.659-0.128-0.993-0.172c-0.286-0.04-0.569-0.086-0.855-0.124
	c-0.631-0.085-1.264-0.12-1.899-0.146c-0.012-0.196-0.021-0.391-0.001-0.587c0.026-0.166,0.058-0.331,0.091-0.496
	c0.257-0.002,0.515,0,0.771-0.005c0.472-0.01,0.941,0.01,1.413,0.026c0.43,0.014,0.855,0.08,1.285,0.086
	c0.136,0,0.274-0.004,0.41-0.004c0.166,0,0.332,0.021,0.497,0.043c0.347,0.054,0.679,0.129,1.01,0.257
	c0.282,0.125,0.552,0.261,0.804,0.441c0.332,0.271,0.631,0.579,0.904,0.909c0.078,0.105,0.154,0.212,0.226,0.323
	c0.108,0.166,0.186,0.35,0.282,0.521c0.09,0.164,0.188,0.322,0.292,0.478c0.108,0.164,0.2,0.335,0.31,0.498
	c0.212,0.313,0.474,0.597,0.715,0.887c0.134,0.16,0.298,0.296,0.454,0.432c0.208,0.18,0.428,0.35,0.655,0.503
	c0.342,0.232,0.701,0.456,1.079,0.625c0.424,0.192,0.883,0.29,1.345,0.355c0.422,0.058,0.843,0.078,1.269,0.08
	c0.432,0.004,0.883-0.15,1.271-0.33c0.378-0.176,0.663-0.52,0.865-0.874c0.228-0.397,0.43-0.833,0.547-1.276
	c0.118-0.438,0.198-0.877,0.22-1.331c0.02-0.37,0.01-0.741-0.002-1.111c-0.004-0.126-0.032-0.248-0.079-0.36
	c0.558-0.005,1.116-0.012,1.673-0.014c0.45,0,0.897-0.002,1.347,0.008c0.384,0.006,0.767,0.026,1.151,0.03
	c0.42,0.002,0.839-0.004,1.257,0.036c0.204,0.02,0.402,0.044,0.607,0.052c0.192,0.006,0.384,0.004,0.576,0.004
	c0.268,0,0.536,0.004,0.803,0.006c0.377,0.003,0.752,0.007,1.129,0c0.002,0.184,0.006,0.368-0.005,0.553
	C27.879,19.038,27.845,19.323,27.837,19.612z M21.438,14.6c-0.336-0.78-0.644-1.576-0.947-2.369
	c-0.078-0.199-0.021-0.466,0.083-0.644c0.109-0.187,0.291-0.327,0.499-0.383c0.073-0.02,0.148-0.03,0.223-0.03
	c0.147,0,0.294,0.038,0.421,0.113c0.199,0.118,0.305,0.289,0.385,0.499c0.176,0.483,0.353,0.969,0.526,1.452
	c0.062,0.173,0.124,0.346,0.189,0.517c0.055,0.143,0.132,0.288,0.169,0.438c0.106,0.423-0.131,0.866-0.559,0.985
	c-0.425,0.116-0.861-0.141-0.983-0.56C21.442,14.612,21.44,14.606,21.438,14.6z M24.631,12.586c0.008-0.057,0.03-0.113,0.059-0.168
	c-0.006-0.04-0.024-0.075-0.024-0.118c0-0.436,0.386-0.881,0.849-0.847c0.478,0.033,0.959,0.109,1.439,0.066
	c0.084-0.015,0.166-0.034,0.249-0.059c0.07-0.021,0.141-0.031,0.211-0.031c0.35,0,0.68,0.246,0.775,0.59
	c0.12,0.438-0.145,0.851-0.559,0.986c-0.126,0.042-0.249,0.066-0.379,0.086c-0.213,0.031-0.428,0.066-0.643,0.076
	c-0.119,0.004-0.239-0.006-0.358-0.007c-0.078,0.444-0.184,0.877-0.29,1.315c-0.105,0.431-0.584,0.685-1.001,0.569
	c-0.204-0.055-0.381-0.192-0.487-0.373c-0.118-0.204-0.122-0.405-0.082-0.628C24.475,13.559,24.559,13.074,24.631,12.586z
	 M23.349,3.278c-0.039,0.017-0.079,0.034-0.118,0.051c-0.03,0.012-0.06,0.024-0.09,0.037C23.211,3.336,23.279,3.308,23.349,3.278z
	 M30.965,8.619c-0.06-0.316-0.24-0.64-0.39-0.925c-0.238-0.448-0.609-0.781-1.043-1.031c-0.376-0.218-0.787-0.363-1.225-0.372
	c-0.021,0-0.043,0-0.064,0c-0.015-0.119-0.032-0.238-0.048-0.357c-0.082-0.582-0.23-1.125-0.518-1.641
	c-0.216-0.392-0.602-0.666-0.951-0.925c-0.308-0.23-0.631-0.414-1.019-0.468c-0.182-0.026-0.362-0.048-0.544-0.062
	c-0.035-0.002-0.07-0.004-0.104-0.004c-0.195,0-0.389,0.036-0.577,0.082c-0.43,0.103-0.844,0.245-1.251,0.413
	c-0.671,0.291-1.313,0.646-1.949,1.01c-0.137-0.086-0.269-0.18-0.412-0.258c-0.14-0.076-0.294-0.146-0.442-0.198
	c-0.228-0.08-0.454-0.11-0.693-0.14c-0.074-0.009-0.149-0.012-0.224-0.012c-0.081,0-0.162,0.003-0.243,0.008
	c-0.278,0.016-0.52,0.088-0.771,0.2c-0.33,0.148-0.623,0.354-0.883,0.605c-0.162,0.156-0.32,0.333-0.414,0.542
	c-0.07,0.154-0.14,0.313-0.188,0.476c-0.034,0.118-0.058,0.236-0.08,0.355c-0.034,0.178-0.062,0.362-0.052,0.543
	c0.01,0.244,0.032,0.49,0.056,0.733c0.03,0.306,0.07,0.618,0.148,0.916c0.052,0.193,0.104,0.388,0.17,0.575
	c0.013,0.037,0.028,0.073,0.043,0.109c-0.222,0.166-0.424,0.348-0.602,0.558c-0.194,0.228-0.332,0.45-0.436,0.728
	c-0.048,0.125-0.084,0.253-0.118,0.381c-0.088,0.338-0.142,0.678-0.186,1.023c-0.044,0.365,0.008,0.739,0.144,1.081
	c0.12,0.3,0.262,0.555,0.48,0.799c0.116,0.132,0.286,0.244,0.424,0.348c0.11,0.082,0.222,0.16,0.336,0.24
	c0.204,0.14,0.452,0.208,0.687,0.278c0.324,0.098,0.651,0.176,0.983,0.246c0.238,0.048,0.466,0.036,0.679-0.09
	c0.198-0.116,0.344-0.306,0.406-0.528c0.12-0.436-0.144-0.991-0.617-1.085c-0.409-0.08-0.833-0.149-1.235-0.274
	c-0.103-0.063-0.202-0.131-0.301-0.203c-0.05-0.042-0.099-0.085-0.145-0.132c-0.036-0.058-0.069-0.117-0.1-0.177
	c-0.023-0.066-0.042-0.134-0.058-0.203c-0.004-0.127,0.004-0.252,0.015-0.38c0.045-0.286,0.098-0.571,0.192-0.845
	c0.019-0.035,0.04-0.067,0.062-0.1c0.111-0.131,0.226-0.253,0.356-0.366c0.045-0.031,0.091-0.061,0.138-0.087
	c0.025-0.008,0.05-0.017,0.075-0.025c0.306-0.104,0.56-0.32,0.647-0.642c0.126-0.453-0.166-0.802-0.355-1.183
	c-0.075-0.218-0.128-0.442-0.166-0.67c-0.042-0.405-0.077-0.812-0.041-1.218c0.022-0.118,0.049-0.232,0.086-0.345
	c0.012-0.023,0.025-0.047,0.039-0.07c0.091-0.1,0.187-0.193,0.289-0.281c0.082-0.054,0.168-0.101,0.257-0.144
	c0.046-0.014,0.092-0.026,0.139-0.036c0.121-0.007,0.24-0.007,0.36,0c0.074,0.017,0.145,0.036,0.217,0.059
	c0.169,0.082,0.328,0.181,0.484,0.286c0.016,0.041,0.019,0.085,0.042,0.124c0.25,0.428,0.825,0.584,1.253,0.328
	c0.757-0.452,1.494-0.959,2.295-1.328c0.154-0.064,0.307-0.13,0.465-0.187c0.156-0.057,0.32-0.093,0.483-0.124
	c0.151-0.008,0.302,0.001,0.453,0.016c0.031,0.006,0.061,0.013,0.092,0.021c0.103,0.058,0.198,0.125,0.294,0.194
	c0.134,0.106,0.265,0.213,0.381,0.338c0.046,0.075,0.088,0.151,0.127,0.23c0.109,0.302,0.176,0.606,0.225,0.924
	c0.029,0.221,0.055,0.442,0.048,0.665c-0.008,0.032-0.018,0.064-0.031,0.096C26.465,7.29,26.475,7.61,26.624,7.84
	c0.226,0.344,0.649,0.565,1.063,0.434c0.101-0.031,0.18-0.072,0.261-0.115c0.076-0.024,0.152-0.043,0.229-0.06
	c0.05-0.001,0.099,0,0.149,0.001c0.049,0.012,0.096,0.026,0.144,0.043C28.584,8.2,28.694,8.263,28.8,8.334
	c0.038,0.035,0.075,0.071,0.11,0.108c0.115,0.178,0.213,0.365,0.306,0.555c0,0.062-0.003,0.123-0.008,0.185
	c-0.022,0.118-0.047,0.234-0.081,0.35c-0.009,0.017-0.018,0.033-0.028,0.049c-0.019,0.02-0.039,0.039-0.06,0.058
	c-0.36,0.335-0.338,0.937,0,1.275c0.328,0.328,0.953,0.374,1.275,0c0.274-0.318,0.448-0.657,0.563-1.063
	C30.987,9.459,31.041,9.021,30.965,8.619z M25.908,20.133c-0.075-0.021-0.151-0.03-0.227-0.03c-0.39,0-0.766,0.259-0.866,0.652
	c-0.184,0.721-0.342,1.456-0.607,2.152c-0.202,0.447-0.415,0.991-0.74,1.35c-0.301,0.333-0.663,0.516-0.516,1.042
	c0.06,0.214,0.202,0.399,0.394,0.512c0.28,0.164,0.583,0.136,0.863,0c0.132-0.062,0.264-0.198,0.364-0.306
	c0.164-0.174,0.298-0.375,0.432-0.573c0.16-0.234,0.302-0.481,0.45-0.726c0.548-0.909,0.805-1.96,1.075-2.977
	C26.653,20.759,26.379,20.263,25.908,20.133z M23.535,24.249c-0.001,0-0.002,0-0.003,0c0.015-0.012,0.031-0.023,0.046-0.036
	C23.564,24.226,23.55,24.238,23.535,24.249z"/>
</svg>
